# xmcd
#
# Track frame offsets: 
#        150
#        22851
#        38545
#        58630
#        73763
#        91335
#        112389
#        131234
#        150070
#        167169
#        183958
#        203830
#        219314
#        233589
#        248597
#
# Disc length: 3532 seconds
#
# Revision: 1
# Processed by: cddbd v1.5.2PL0 Copyright (c) Steve Scherf et al.
# Submitted via: ExactAudioCopy v0.99pb4
#
DISCID=bf0dca0f
DTITLE=Twista - Category F5
DYEAR=2009
DGENRE=Hip Hop
TTITLE0=Misunderstood Featuring Buk
TTITLE1=American Gangsta
TTITLE2=Fire Featuring Lil Boosie 
TTITLE3=Talk To Me
TTITLE4=Yellow Light Featuring R. Kelly
TTITLE5=Walking On Ice Featuring Gucci Mane and OJ The Juiceman
TTITLE6=Wetter Featuring Erika Shevon
TTITLE7=Billionaire Featuring Busta Rhymes
TTITLE8=Yo Body Featuring Do Or Die and Johnny P
TTITLE9=Hustla
TTITLE10=Gotta Get Me One Featuring Static Major
TTITLE11=On Top Featuring Akon
TTITLE12=Jump Off
TTITLE13=Wanna See 'Em Buss Featuring Liffy Stokes
TTITLE14=Birthday
EXTD=
EXTT0=
EXTT1=
EXTT2=
EXTT3=
EXTT4=
EXTT5=
EXTT6=
EXTT7=
EXTT8=
EXTT9=
EXTT10=
EXTT11=
EXTT12=
EXTT13=
EXTT14=
PLAYORDER=
